<?xml version="1.0" encoding="utf-8"?>
<!-- Generator: Adobe Illustrator 16.0.0, SVG Export Plug-In . SVG Version: 6.00 Build 0)  -->
<svg version="1.2" baseProfile="tiny" id="Layer_1" xmlns="http://www.w3.org/2000/svg" xmlns:xlink="http://www.w3.org/1999/xlink"
	 x="0px" y="0px"  viewBox="0 0 3000 3000" xml:space="preserve">
<g>
	<g>
		<path fill="none" d="M2212.076,2813.992c0,26.754,21.521,48.403,48.266,48.403c26.566,0,48.156-21.649,48.156-48.403
			c0-26.577-21.58-48.128-48.156-48.128C2233.588,2765.864,2212.076,2787.415,2212.076,2813.992z M2282.904,2797.074
			c0,9.57-7.947,14.97-16.553,16.141c6.807,1.2,10.406,9.669,12.924,15.039c1.199,2.498,3.414,7.633,5.242,9.669
			c1.338,1.613,2.734,1.928,5.549,1.928v3.03h-4.221c-2.961,0-7.564,0.314-10.121-1.623c-2.842-2.105-5.381-8.676-6.541-11.666
			c-1.338-3.275-3.895-9.954-6.393-12.491c-2.223-2.42-5.734-2.145-8.754-2.145h-2.646v20.734c0.146,2.99,1.338,4.043,4.426,4.15
			l2.922,0.178v2.853h-24.463v-2.853l2.951-0.178c3.807-0.314,4.328-0.698,4.328-4.317v-46.722c0-3.609-1.762-3.609-4.672-3.718
			h-2.617v-3.029h24.463c5.547,0,12.658,0,17.43,2.843C2280.23,2787.415,2282.904,2792.372,2282.904,2797.074z"/>
		<path fill="none" d="M2131.4,813.218h26.605c5.588,0,8.686-2.705,12.65-5.527c21.904-15.256,32.803-58.2,4.082-58.2h-22.682
			c-8.686,0-10.889,0.275-13.457,7.692l-14.193,46.504C2122.262,810.543,2122.961,813.218,2131.4,813.218z"/>
		<path fill="none" d="M1342.027,746.392c-9.424-0.285-32.833-2.321-46.014,21.157c-13.111,23.342-19.761,51.04-21.551,57.089
			c-1.928,6.118-2.488,8.508,1.348,8.508h43.229c2.971,0,3.905-0.846,6.826-9.491c2.951-8.548,15.079-51.325,18.029-61.131
			C1348.361,747.621,1348.813,746.707,1342.027,746.392z"/>
		<path fill="none" d="M2254.854,2785.201c-1.506,0-2.115,0.099-2.666,1.437c-0.207,0.491-0.777,1.544-0.777,2.174v22.613h3.59
			c9.344,0,17.854-2.046,17.854-13.299c0-8.921-5.666-12.924-14.105-12.924L2254.854,2785.201L2254.854,2785.201z"/>
		<path fill="none" d="M1142.04,1083.778h-21.993c-8.43,0-10.584,0.178-13.111,7.171l-13.731,43.691c-2.164,6.541-1.476,9,6.807,9
			h25.761c5.42,0,8.43-2.498,12.236-5.134C1159.302,1124.087,1169.816,1083.778,1142.04,1083.778z"/>
		<path fill="none" d="M1561.203,1163.814h43.309v0.04c2.883,0,3.826-0.807,6.816-8.755c2.883-7.986,15.039-47.597,17.99-56.626
			c4.535-13.819,4.957-14.705-1.791-14.921c-9.531-0.354-32.871-2.174-45.982,19.544c-13.182,21.698-19.889,47.203-21.689,52.83
			C1557.938,1161.563,1557.367,1163.814,1561.203,1163.814z"/>
		<path fill="none" d="M628.204,1236.937c19.997,0,73.111-34.2,73.111-96.562c0-16.554-3.551-53.321-40.594-53.321
			c-46.967,0-70.868,62.017-70.868,95.499C589.853,1215.149,604.892,1236.937,628.204,1236.937z"/>
		<path fill="#1D5B2D" d="M734.404,810.867c20.597,0,21.256,11.705,45.433,11.705c38.351,0,24.855-44.862-22.978-44.862
			c-65.36,0-119.882,39.089-119.882,82.957c0,41.381,50.686,71.567,98.43,71.567c115.662,0,159.551-150.767,182.548-211.583
			c4.613-12.188,5.813-13.604,9.846,0c2.184,7.484,31.81,106.269,34.338,113.438c1.829,5.312,2.527,6.758,6.58,6.758h15.363
			c4.043,0,4.043-1.022,7.653-5.351c3.59-4.318,108.836-134.135,116.892-144.541c8.075-10.338,12.049-9.315,7.338,6.787
			c-4.958,16.554-52.27,179.586-54.876,187.839c-2.134,6.935-3.757,11.193-9.059,14.705c-5.528,3.551-20.154,13.141-32.203,21.089
			c-11.253,7.347-8.115,8.892-1.043,8.892h107.046c3.797,0,4.534-2.312-2.223-8.892c-3.63-3.61-11.352-10.014-16.811-15.04
			c-4.209-3.836-5.065-6.816-3.226-14.351c1.79-7.515,63.905-218.921,67.278-231.718c2.843-10.534,7.534-17.646,14.627-20.99
			c8.675-4.072,18.826-8.606,27.265-13.427c6.925-3.964,5.804-5.616-2.567-5.616h-81.402c-6.719,0-8.439,1.377-12.069,5.272
			c-3.728,3.935-107.39,137.449-113.292,145.259c-5.94,7.869-9.875,7.869-11.646,1.082c-1.829-6.758-39.147-138.855-40.958-144.335
			c-1.918-5.498-3.757-7.278-10.603-7.278c-7.003,0-63.285,0-71.951,0c-8.823,0-10.269,1.377-1.2,7.771
			c5.449,3.797,9.463,8.223,14.41,11.272c7.81,4.819,8.587,4.957,6.826,20.99c-5.065,47.036-51.915,241.495-153.895,241.495
			c-37.072,0-69.148-14.41-69.148-43.938C665.255,828.228,705.151,810.867,734.404,810.867z"/>
		<path fill="#1D5B2D" d="M1963.863,1094.599c1.76-6.394,4.572-10.613,8.793-12.61c5.203-2.429,11.135-5.271,16.348-8.085
			c6.295-3.344,3.412-6.049-1.584-6.049h-56.381c-3.963,0-5.025,0.816-7.238,3.206c-2.184,2.321-74.773,93.57-78.246,98.243
			c-3.551,4.711-5.941,4.78-6.924,0.698c-1.082-4.072-31.457-94.456-32.52-97.722c-1.15-3.275-2.213-4.436-6.354-4.396
			c-4.189,0-50.479-0.039-55.791-0.039c-5.271,0-6.855,1.662-1.504,5.537c3.266,2.312,19.299,11.105,22.318,12.925
			c4.711,2.853,5.135,5.734,2.537,13.259c-3.619,10.928-35.754,115.545-37.957,122.361c-2.223,6.747-4.014,11.803-8.371,14.262
			c-4.426,2.498-10.268,6.079-19.406,10.348c-8.861,4.22-9.098,7.171-5.066,7.171h69.355c3.619,0,3.619-2.154-0.385-6.04
			c-3.383-3.452-4.643-5.036-8.4-8.616c-3.412-3.413-5.064-7.141-2.881-12.904c2.184-5.666,22.918-71.509,25.209-77.548
			c3.482-9.394,5.449-9.983,7.662-2.498c1.369,4.465,23.795,58.878,25.299,63.128c1.092,3.206,1.516,4.071,3.906,4.071h24.256
			c2.418,0,2.418-0.619,4.643-3.187c2.143-2.567,52.514-64.298,57.334-70.515c6.748-8.686,7.869-4.574,5.832,2.488
			c-2.842,9.925-23.488,81.521-24.992,86.479c-1.299,4.082-3.041,7.171-5.725,9.816c-3.197,3.188-7.211,5.41-11.99,8.607
			c-6.758,4.504-6.473,6.757-2.225,6.757h71.215c3.305,0,2.959-2.469-1.043-6.433c-2.223-2.184-5.844-5.695-9.148-8.263
			c-2.773-2.114-2.104-3.807-0.953-8.223C1924.527,1226.294,1961.826,1102.241,1963.863,1094.599z"/>
		<path fill="#1D5B2D" d="M2227.578,1073.48c3.266,2.252,19.367,11.007,22.326,12.875c4.781,2.843,6.611,5.725,4.043,13.22
			c-3.727,10.968-35.793,115.584-37.996,122.391c-2.145,6.777-5.42,11.813-9.914,14.271c-4.299,2.499-10.27,6.011-19.338,10.407
			c-8.854,4.15-9.139,7.141-5.105,7.141h69.434c3.658,0,3.658-2.184-0.355-6.078c-3.482-3.374-4.76-4.997-8.43-8.538
			c-3.451-3.452-5.064-7.171-2.842-12.974c2.076-5.695,19.721-64.928,21.482-71.174c2.566-8.892,6.885-10.309,9.137-2.843
			c1.338,4.495,32.449,93.039,33.994,97.367c1.082,3.187,3.059,4.249,5.381,4.249h32.232c2.459,0,6.609-2.498,7.652-5.685
			c1.16-3.246,43.908-144.306,46.053-150.315c2.881-8.223,4.928-12.413,9.461-14.616c6.572-3.275,9.561-4.053,17.607-7.908
			c7.455-3.698,7.279-7.495,0.629-7.495h-68.291c-3.66,0-4.711,2.528,0.807,6.049c4.494,2.912,9.875,7.485,13.809,10.368
			c3.09,2.184,4.389,5.025,2.184,11.419c-1.691,5.312-33.215,103.092-34.652,107.774c-1.76,5.527-5.842,4.652-7.002,0.629
			c-1.043-4.082-40.947-128.449-42.01-131.685c-1.053-3.345-2.213-4.427-6.355-4.427c-4.219,0-47.143,0-52.377,0
			C2223.811,1067.884,2222.158,1069.546,2227.578,1073.48z"/>
		<path fill="#1D5B2D" d="M1396.873,1073.805c4.534,2.912,9.943,7.485,13.957,10.367c3.049,2.184,4.387,5.026,2.174,11.42
			c-1.79,5.312-33.217,103.092-34.722,107.773c-1.761,5.528-5.911,4.653-6.993,0.63c-1.053-4.082-40.918-128.449-42.078-131.686
			c-1.053-3.344-2.145-4.426-6.217-4.426c-4.299,0-47.213,0-52.456,0c-5.223,0-6.993,1.662-1.505,5.587
			c3.236,2.252,19.259,11.007,22.249,12.875c4.712,2.843,6.581,5.725,4.014,13.22c-3.729,10.968-35.755,115.584-37.929,122.391
			c-2.213,6.777-5.479,11.813-9.846,14.271c-4.426,2.499-10.259,6.011-19.328,10.407c-8.921,4.15-9.177,7.141-5.134,7.141h69.394
			c3.629,0,3.629-2.184-0.413-6.078c-3.482-3.374-4.79-4.997-8.331-8.538c-3.551-3.452-5.145-7.17-2.961-12.974
			c2.145-5.695,19.79-64.928,21.541-71.174c2.567-8.892,6.895-10.309,9.147-2.843c1.259,4.495,32.37,93.039,33.915,97.367
			c1.16,3.188,3.127,4.249,5.488,4.249h32.135c2.449,0,6.639-2.498,7.691-5.685c1.092-3.246,43.938-144.306,46.053-150.315
			c2.921-8.223,4.947-12.413,9.491-14.616c6.61-3.275,9.492-4.053,17.548-7.908c7.515-3.698,7.269-7.495,0.698-7.495h-68.232
			C1392.475,1067.756,1391.414,1070.283,1396.873,1073.805z"/>
		<path fill="#1D5B2D" d="M1396.41,724.212c-85.17,0-121.839,5.694-151.15,71.597c-25.908,58.317-31.387,119.803-55.859,119.803
			c-12.088,0-16.032-8.921-25.986-8.921c-12.118,0-20.725,6.039-20.725,15.108c0,9.039,5.793,19.476,27.275,19.476
			c49.032,0,79.652-46.83,92.832-82.476c2.961-7.908,4.791-9.306,11.007-9.306h37.357c6.089,0,5.626,0.984,4.889,5.941
			c-0.768,5.036-8.813,31.072-9.737,36.492c-1.014,5.527-2.951,7.938-6.531,11.252c-4.958,4.289-12.413,9.944-18.305,14.616
			c-11.705,9.315-11.193,12.512-3.659,12.512h87.354c7.309,0,5.065-2.666-4.466-13.229c-3.501-3.896-8.783-8.223-11.646-11.764
			c-2.843-3.551-2.558-7.702-1.082-13.643c1.476-5.941,34.348-123.079,37.692-134.951c3.373-12.029,6.993-15.758,14.616-18.659
			C1419.535,730.684,1414.754,724.212,1396.41,724.212z M1343.895,762.533c-2.95,9.807-15.079,52.583-18.029,61.131
			c-2.921,8.646-3.866,9.492-6.826,9.492h-43.229c-3.836,0-3.275-2.391-1.348-8.509c1.8-6.039,8.439-33.747,21.551-57.088
			c13.181-23.489,36.59-21.453,46.014-21.158C1348.813,746.707,1348.361,747.621,1343.895,762.533z"/>
		<path fill="#1D5B2D" d="M1530.691,1129.241c-25.879,53.951-31.465,115.082-55.957,115.082c-11.99,0-15.925-8.224-25.879-8.263
			c-12.157,0-20.765,5.479-20.765,13.879s5.794,18.138,27.236,18.138c49.112,0,79.76-47.597,92.942-80.538
			c2.92-7.269,4.779-8.606,11.074-8.606h37.299c6.039,0,5.617,0.886,4.889,5.488c-0.709,4.643-8.793,28.791-9.807,33.777
			c-0.924,5.135-3.412,9.345-7.74,13.111c-3.926,3.374-7.387,7.004-13.182,11.509c-10.887,8.419-11.498,10.957-4.002,10.957h81.787
			c4.436,0,5.527-2.538-3.266-10.761c-3.689-3.452-8.223-8.577-11.637-11.42c-3.512-2.921-1.76-8.085-0.314-13.643
			c1.504-5.449,34.377-113.853,37.682-124.928c3.453-10.996,7.072-14.41,14.617-17.223c19.338-6.826,14.586-12.768-3.826-12.768
			C1596.701,1063.034,1560.043,1068.346,1530.691,1129.241z M1559.865,1155.946c1.801-5.627,8.51-31.132,21.689-52.83
			c13.111-21.718,36.451-19.898,45.982-19.544c6.748,0.206,6.326,1.092,1.791,14.921c-2.951,9.029-15.107,48.64-17.99,56.627
			c-3,7.947-3.934,8.754-6.816,8.754v-0.04h-43.309C1557.367,1163.814,1557.938,1161.563,1559.865,1155.946z"/>
		<path fill="#1D5B2D" d="M1493.806,913.113c-34.515,0-46.75-22.81-49.623-40.495c-2.989-17.676-8.301-15.748-12.728-2.391
			c-4.396,13.367-13.466,42.886-16.563,51.502c-3.029,8.577,0.354,15.256,10.613,8.577c10.189-6.649,23.025-10.022,36.177-3.344
			c11.252,5.734,22.456,8.646,32.124,8.646c9.778,0,44.833-4.85,65.784-32.941c20.98-28.111,3.895-56.734-11.646-68.223
			c-15.6-11.498-49.71-30.551-56.517-45.344c-6.816-14.804,5.833-38.145,30.128-38.145c35.605,0,41.369,28.082,41.941,35.282
			c0.982,12.875,6.814,16.672,10.258,6.196c2.498-7.761,10.201-33.403,14.527-47.666c4.113-13.347,0.563-15.334-11.684-5.242
			c-7.172,5.882-14.096,7.111-28.467,1.859c-14.281-5.193-21.236-8.528-37.889-8.528c-16.672,0-40.79,10.014-54.885,29.479
			c-14.153,19.622-16.484,38.636,4.357,60.226c29.253,29.98,54.522,37.111,63.797,50.509
			C1532.758,886.438,1528.41,913.113,1493.806,913.113z"/>
		<path fill="#1D5B2D" d="M2340.279,913.113c-34.564,0-46.791-22.81-49.713-40.495c-2.92-17.676-8.262-15.748-12.648-2.391
			c-4.436,13.367-13.535,42.886-16.523,51.502c-3.09,8.577,0.275,15.256,10.533,8.577c10.201-6.649,23.027-10.022,36.178-3.344
			c11.252,5.734,22.426,8.646,32.174,8.646c9.727,0,44.813-4.85,65.734-32.941c20.951-28.111,3.963-56.734-11.676-68.223
			c-15.609-11.469-49.711-30.551-56.527-45.344c-6.777-14.804,5.91-38.145,30.266-38.145c35.469,0,41.301,28.082,41.9,35.282
			c0.926,12.875,6.816,16.672,10.201,6.196c2.498-7.761,10.258-33.403,14.615-47.666c4.082-13.347,0.463-15.334-11.773-5.242
			c-7.17,5.882-14.035,7.111-28.367,1.859c-14.42-5.193-21.266-8.528-37.928-8.528c-16.652,0-40.84,10.014-54.904,29.479
			c-14.164,19.622-16.574,38.636,4.387,60.226c29.184,29.98,54.561,37.111,63.768,50.509
			C2379.26,886.438,2374.893,913.113,2340.279,913.113z"/>
		<path fill="#1D5B2D" d="M1807.479,729.946c-1.898,9.098-11.705,14.685-27,14.685c-26.99,0.04-69.629-17.892-92.832-17.892
			c-17.99,0-62.814,16.033-62.814,57.58c0,23.096,37.053,21.965,37.053-5.694c0-9.993-7.799-28.437,14.617-28.437
			c11.537,0,15.117,3.797,24.334,7.613c7.662,3.275,8.43,5.075,5.803,13.299c-2.537,8.301-35.439,118.74-36.875,123.767
			c-1.416,4.987-1.799,6.816-5.527,9.659c-3.619,2.853-12.227,10.2-19.367,15.758c-8.932,6.816-9.039,10.022-3.975,10.022h89.115
			c4.781,0,7.102-1.515-1.791-10.722c-6.924-7.17-7.277-7.839-10.543-11.773c-2.814-3.384-4.043-5.41-2.568-11.459
			c1.408-6.078,30.65-111.324,32.439-117.728c1.938-6.433,2.223-8.577,8.795-8.577c9.885,0,33.215,1.761,48.186-5.764
			c14.971-7.456,34.033-22.151,34.033-36.148C1838.551,710.884,1811.521,710.608,1807.479,729.946z"/>
		<path fill="#1D5B2D" d="M2568.131,1114.988c1.791-6.394,2.184-8.606,8.793-8.606c9.838,0,33.148,1.8,48.188-5.734
			c14.971-7.524,33.955-22.102,33.955-36.138c0-17.154-27.029-17.538-31.072,1.829c-1.859,9.069-11.637,14.656-27,14.656
			c-27.061,0-70.406-17.961-92.764-17.961c-17.43,0-60.777,15.079-60.777,54.069c0,21.58,35.744,20.558,35.744-5.351
			c0-9.453-5.941-24,13.523-24c11.125,0,15.375,2.566,24.66,6.433c7.623,3.256,8.371,4.996,5.793,13.288
			c-2.527,8.263-31.801,105.875-33.217,110.941c-1.436,4.957-3.619,9.275-6.885,12.481c-3.975,3.826-11.842,9.561-16.141,12.925
			c-6.885,5.272-9.139,9.954-4.043,9.954h84.787c4.779,0,6.57-1.8-1.16-9.246c-3.797-3.797-7.24-7.524-10.467-10.436
			c-3.412-2.843-2.223-8.233-0.777-14.272C2540.68,1213.743,2566.293,1121.401,2568.131,1114.988z"/>
		<path fill="#1D5B2D" d="M352.39,1029.778c9.147-11.773,22.682-27.59,26.026-31.455c3.227-3.896,6.58-5.734,12.06-5.734
			c5.409,0,56.173-0.345,61.682,0c6.541,0.394,10.623,0.855,7.21,11.853c-3.482,11.036-56.676,193.967-58.673,200.675
			c-1.858,6.679-6.147,14.272-10.652,18.57c-5.271,5.125-20.911,12.994-28.711,17.686c-10.161,6.039-14.272,12.403-7.456,12.403
			h113.961c3.649,0,4.426-2.459-3.728-9.983c-5.303-4.819-9.738-10.023-14.164-13.889c-4.357-3.836-5.066-12.609-2.145-21.895
			c2.488-8.057,57.787-196.082,60.167-204.699c2.233-7.701,4.299-9.138,11.263-9.138h70.269c6.993,0,6.256,1.613,7.357,5.519
			c1.013,3.974,5.056,24.708,6.531,30.481c1.436,5.656,4.348,11.843,8.793,0.698c4.357-11.075,17.47-52.209,19.751-59.025
			c2.115-6.807,1.053-6.807-5.901-6.807H372.122c-5.843,0-8.056,0-10.161,4.986c-2.281,5.036-17.921,52.908-19.829,58.004
			C338.542,1038.336,343.332,1041.592,352.39,1029.778z"/>
		<path fill="#1D5B2D" d="M1846.527,886.743c-2.154,7.465-4.643,10.416-7.986,13.957c-6.227,6.816-15.758,13.849-19.789,17.124
			c-9.307,7.811-9.463,12.502-1.762,12.502h150.168c4.002,0,5.842,0,7.613-5.017c1.867-4.928,8.832-25.74,11.715-38.576
			c2.93-12.896-0.385-19.673-12.453-1.791c-7.801,11.528-19.928,23.587-29.559,23.587h-54.412c-5.547,0-5.066-4.288-3.383-9.314
			c1.938-5.026,17.576-55.829,19.092-60.433c1.465-4.643,3.58-6.816,8.369-6.816c27.059,0,28.053,4.682,29.598,19.298
			c1.436,13.929,5.832,10.378,7.691,4.653c1.801-5.695,11.646-41.98,14.971-54.384c2.223-8.224-1.83-11.813-8.813-0.698
			c-6.336,10.121-11.883,12.196-39.443,12.196c-4.781,0-5.105-2.145-3.275-7.879c1.801-5.764,12.797-42.285,14.971-47.94
			c1.967-5.282,4.779-7.712,13.504-7.712h37.477c8.813,0,15.188,10.554,15.188,27.227c0,21.797,8.262,10.544,11.693,2.419
			c3.385-8.085,9.67-26.438,12.414-34.839c3.266-10.022,2.566-11.449-3.658-11.449v0.029h-152.695c-4.428,0-3.512,2.253,2.852,8.538
			c3.865,3.807,9.914,9.236,13.18,11.843c3.305,2.508,3.66,4.682,2.568,10.032C1881.26,768.641,1848.74,879.198,1846.527,886.743z"
			/>
		<path fill="#1D5B2D" d="M2055.299,886.654c-2.115,7.524-4.299,11.675-7.771,15.039c-3.619,3.62-12.127,10.722-19.377,16.84
			c-10.572,8.892-10.957,11.773-3.648,11.773h84.049c4.004,0,8.086-2.567,1.791-9.983c-4.604-5.459-7.172-11.469-10.221-16.456
			c-3.166-5.272-4.012-7.171-2.605-12.196l15.393-50.519c1.791-5.725,8.854-14.764,25.27-6.462
			c16.484,8.184,7.986,35.469,12.373,57.334c4.426,21.826,18.916,31.84,21.906,35.076c2.949,3.196,4.779,3.196,7.346,3.196h51.67
			c4.682,0,4.426-4.082-10.082-10.722c-38.842-17.892-28.83-66.551-35.469-76.908c-3.865-6.196-3.01-8.114,5.164-11.773
			c52.564-23.587,60.678-98.036-15-98.036h-103.633c-4.348,0-3.375,2.272,3,8.528c3.865,3.807,9.836,9.314,13.111,11.842
			c3.305,2.509,3.648,4.653,2.566,10.033C2090.059,768.602,2057.551,879.169,2055.299,886.654z M2124.406,803.687l14.193-46.504
			c2.568-7.417,4.771-7.692,13.457-7.692h22.682c28.721,0,17.822,42.944-4.082,58.2c-3.965,2.813-7.063,5.527-12.65,5.527H2131.4
			C2122.961,813.218,2122.262,810.543,2124.406,803.687z"/>
		<path fill="#1D5B2D" d="M1157.945,1160.313c80.596-35.115,38.518-92.243-14.519-92.243h-100.643c-4.249,0-3.305,2.253,2.921,8.154
			c3.659,3.482,9.492,8.676,12.699,10.997c3.226,2.39,3.57,4.426,2.527,9.462c-1.053,5.056-32.655,109.003-34.8,116.036
			c-2.114,7.063-4.318,12.089-7.702,15.256c-3.619,3.413-11.705,10.121-18.846,15.816c-9.629,7.8-9,9.983-3.295,9.983h78
			c3.875,0,5.498-2.184,1.053-7.524c-3.865-4.741-5.065-6.118-7.691-9.669c-3.62-4.672-3.975-6.718-2.499-11.41l16.908-55.269
			c1.839-5.341,8.646-13.731,24.57-6.039c15.915,7.771,7.692,33.423,11.922,53.892c4.298,20.567,14.065,29.951,16.908,32.98
			c2.813,3.059,4.603,3.059,7.062,3.059h52.092c4.653,0,4.122-3.344-9.728-10.053c-28.16-13.81-15.885-54.826-31.957-72.413
			C1148.275,1166.244,1150.037,1163.756,1157.945,1160.313z M1138.006,1138.507c-3.806,2.646-6.816,5.135-12.235,5.135h-25.762
			c-8.291,0-8.97-2.46-6.806-9l13.731-43.692c2.527-7.003,4.682-7.171,13.111-7.171h21.993
			C1169.816,1083.778,1159.302,1124.087,1138.006,1138.507z"/>
		<path fill="#1D5B2D" d="M783.888,1190.432c-13.878,46.888,7.801,83.655,68.233,63.334c24.531-8.232,31.456-17.823,42.068-17.823
			c10.574,0,17.194,13.112,22.997,17.823c8.4,6.816,10.721,10.377,15.394,0c3.58-8.232,53.597-177.551,54.757-182.095
			c0.601-2.488,1.407-3.797-3.648-3.797H913.98c-4.259,0-3.344,2.469,2.912,8.341c3.658,3.512,9.502,8.676,12.698,10.997
			c3.226,2.39,3.57,4.465,2.528,9.462c-1.053,5.056-25.23,88.751-27.207,95.783c-5.351,19.082-38.715,41.026-61.869,41.026
			c-23.104,0-24.433-18.669-22.996-23.38c0,0,41.232-133.79,42.226-137.154c0.944-3.384,1.122-5.075-3.698-5.075h-65.479
			c-4.229,0-3.344,2.469,2.911,8.341c3.659,3.512,9.531,8.676,12.688,10.997c3.275,2.39,3.551,4.465,2.577,9.462
			C810.19,1101.739,785.924,1183.369,783.888,1190.432z"/>
		<path fill="#1D5B2D" d="M2096.67,1091.304c1.967-4.958,4.643-7.21,13.219-7.21h36.768c8.43,0,14.725,9.846,14.725,25.603
			c0,20.381,8.084,9.847,11.379,2.214c3.316-7.584,9.463-24.787,12.236-32.656c3.129-9.413,2.43-10.751-3.619-10.751h-149.42
			c-4.357,0-3.412,2.145,2.883,8.036c3.729,3.561,9.6,8.725,12.797,11.046c3.266,2.381,3.619,4.387,2.566,9.453
			c-1.17,5.025-32.98,108.767-35.074,115.79c-2.184,7.102-4.613,9.737-7.84,13.111c-3.197,3.305-15.395,11.38-22.496,17.114
			c-9.215,7.309-11.154,10.722-3.697,10.722h152.035c3.965,0,5.695,0,7.525-4.643c1.77-4.712,8.576-24.256,11.42-36.305
			c2.92-12.069-0.346-18.492-12.197-1.623c-7.525,10.8-20.764,25.455-30.227,25.455h-53.291c-5.371,0-5.027-4.081-3.158-8.793
			c1.801-4.682,18.453-55.643,19.889-59.971c1.377-4.357,3.59-6.433,8.193-6.433c26.498,0,27.492,4.357,28.996,18.217
			c1.377,13.032,5.656,9.658,7.457,4.317c1.76-5.419,11.389-39.403,14.654-51.068c2.135-7.702-1.828-11.086-8.576-0.63
			c-6.188,9.492-11.676,11.351-38.637,11.351c-4.602,0-4.957-1.967-3.117-7.308
			C2083.773,1130.952,2094.486,1096.684,2096.67,1091.304z"/>
		<path fill="#1D5B2D" d="M546.407,1185.415c0,39.256,28.476,75.147,73.121,75.147c59.125,0,126.541-69.285,121.544-123.452
			c-5.576-61.722-64.849-75.434-87.619-74.774C599.935,1064.097,546.407,1123.891,546.407,1185.415z M660.721,1087.054
			c37.043,0,40.594,36.768,40.594,53.321c0,62.371-53.105,96.562-73.111,96.562c-23.312,0-38.351-21.787-38.351-54.384
			C589.853,1149.061,613.745,1087.054,660.721,1087.054z"/>
		<path fill="#1D5B2D" d="M2204.236,2813.992c0,31.102,25.102,56.174,56.105,56.174c30.895,0,55.889-25.072,55.889-56.174
			c0-30.905-24.994-55.938-55.889-55.938C2229.328,2758.054,2204.236,2783.087,2204.236,2813.992z M2308.488,2813.992
			c0,26.754-21.58,48.403-48.156,48.403c-26.754,0-48.266-21.649-48.266-48.403c0-26.577,21.521-48.128,48.266-48.128
			C2286.908,2765.864,2308.488,2787.415,2308.488,2813.992z"/>
		<path fill="#1D5B2D" d="M2234.285,2782.074v3.029h2.617c2.91,0.108,4.672,0.108,4.672,3.718v46.722
			c0,3.619-0.531,4.003-4.328,4.317l-2.951,0.178v2.853h24.463v-2.853l-2.922-0.178c-3.088-0.107-4.289-1.16-4.426-4.15v-20.734
			h2.646c3.02,0,6.531-0.275,8.754,2.145c2.498,2.537,5.064,9.216,6.393,12.491c1.16,2.99,3.699,9.561,6.541,11.666
			c2.568,1.938,7.17,1.623,10.121,1.623h4.221v-3.03c-2.814,0-4.221-0.314-5.549-1.928c-1.838-2.036-4.041-7.171-5.242-9.669
			c-2.527-5.37-6.117-13.84-12.924-15.039c8.605-1.161,16.553-6.57,16.553-16.142c0-4.711-2.664-9.658-6.717-12.157
			c-4.771-2.842-11.883-2.842-17.43-2.842h-24.492V2782.074z M2272.854,2798.136c0,11.253-8.51,13.299-17.854,13.299h-3.59v-22.613
			c0-0.62,0.57-1.682,0.777-2.174c0.561-1.348,1.16-1.437,2.664-1.437h3.896C2267.188,2785.201,2272.854,2789.205,2272.854,2798.136
			z"/>
		<path fill="#1D5B2D" d="M2428.537,1645.113c18.139-23.41,28.152-36.374,30.994-49.171c3.443-15.157-3.619-74.98-3.963-77.547
			c-8.115-68.371-16.072-74.883-20.844-78.856c-6.295-5.232-10.023-16.554-10.721-32.685l-0.246-5.479
			c-0.629-20.145-1.082-31.22-12.236-55.692c-1.928-5.399-4.318-10.643-7.445-16.022c-7.703-13.643-18.07-22.22-30.65-25.525
			c-19.967-5.37-39.865,4.082-54.836,12.935c-30.412,17.853-96.629,82.289-122.439,131.224
			c-17.605,33.324-22.141,39.255-39.855,40.377c-4.121,0.285-8.576,0.393-13.219,0.541c-25.879,0.619-61.377,1.534-89.4,31.563
			c-23.744,25.299-49.23,38.135-71.281,37.406v42.482c33.383,0.679,69.49-16.731,101.861-51.285
			c16.033-17.145,35.439-17.754,59.971-18.374c5.066-0.147,9.846-0.246,14.803-0.531c42.531-2.665,56.559-29.223,74.244-62.715
			c22.957-43.446,83.664-101.154,106.652-114.659c16.268-9.629,21.904-8.822,22.75-8.606c0.984,0.275,2.912,1.958,5.193,5.902
			c6.895,12.117,8.232,22.071,5.203,38.134c-5.42,27.886,1.506,52.662,20.568,73.574c8.576,9.383,12.088,13.288-19.063,45.59
			c-6.355,6.541-12.305,12.688-17.539,19.338c-21.441,27.521-33.49,67.593-36.766,122.508c-3.09,53.007-5.549,63.974-30.867,96.944
			c-22.15,28.534-38.133,49.249-42.068,136.102c-1.859,43.761,3.936,92.774,9.66,140.154c4.887,40.78,9.953,82.957,9.736,120.147
			c-0.492,73.367-8.576,130.839-26.223,186.305c-17.115,53.469-44.469,90.591-112.514,152.695
			c-41.941,38.145-61.172,82.181-27.463,183.836c16.141,48.619,20.605,98.961,10.387,117.236c-2.291,3.964-4.584,5.272-7.594,5.94
			c-3.875,0.886-6.541,0.246-9.846-2.271c-22.711-17.41-38.734-91.643-40.25-137.203c-2.223-67.023-40.002-101.656-68.123-121.84
			c-78.855-56.665-219.463-64.121-279.08-14.518c-3.895,3.305-24.146,0.108-43.377-3.876c-26.566-5.616-48.215-15.53-121.445-17.822
			c-60.885-1.928-120.895,20.694-160.535,60.324c-45.846,45.866-60.177,95.686-68.341,161.095
			c-1.604,13.26-8.184,24.079-16.377,27.699c-5.941,2.498-12.993,0.914-20.833-4.771c-8.901-6.472-17.901-13.722-28.337-22.043
			c-18.886-15.147-42.256-33.915-76.781-57.757c-29.734-20.381-67.593-19.722-101.056-19.151
			c-16.141,0.275-31.466,0.63-41.134-1.761c-23.381-5.764-40.918-19.868-63.275-37.612c-16.485-13.289-35.332-28.259-59.686-42.423
			c-41.548-24.188-71.459-30.295-103.171-36.944c-27.344-5.734-55.603-11.528-96.462-30.61
			c-55.396-25.986-125.203-104.017-207.423-231.826c-28.731-44.646-38.036-71.213-36.876-140.921
			c1.506-97.131,15.541-170.637,42.984-224.734c23.271-46.092,43.239-117.157,48.481-172.869
			c1.751-17.686,1.338-71.145,1.338-71.145s1.19-11.046,10.722-14.488c-0.188,0-0.188,0,61.17-22.289c0,0,0.807,0.63,13.22-11.773
			c0,0,0.453,1.652,9.06-21.797c0,0,7.249-17.262,11.321-16.986c21.481,1.583,917.646,27.383,949.386,27.383
			c8.686,0,19.23,16.102,29.381,31.564c17.893,27.423,42.363,64.829,90.551,64.829c45.217,0,62.223-38.184,74.773-66.088
			c5.971-13.505,12.236-27.463,20.293-35.823c27.766-28.869,69.914-30.197,100.248-3.275c3.178,2.823,6.482,5.321,9.846,7.633
			v-52.063c-45.236-27.324-102.314-20.783-140.262,18.688c-13.111,13.643-20.951,31.003-28.445,47.744
			c-12.758,28.761-20.105,41.371-36.482,41.371c-25.455,0-39.414-21.227-55.475-45.836c-15.502-23.686-33.041-50.548-64.477-50.548
			c-31.564,0-924.944-25.771-946.397-27.275c-24.875-1.8-41.793,12.481-47.056,26.577l-11.606,31.524l-53.439,17.085
			c-10.465,3.797-38.213,13.879-38.213,42.492l0.108,11.538c0.079,19.298,0.285,51.452-1.229,66.895
			c-4.81,51.177-23.135,116.145-44.213,158.036c-30.305,59.862-45.886,139.309-47.488,242.892
			c-0.424,22.004,0.619,40.574,2.252,56.843c6.885,73.987,25.652,159.876,41.223,212.282
			c13.111,44.046,66.61,191.606,205.25,240.964c24.472,8.686,49.819,14.488,74.281,19.996
			c45.492,10.309,92.666,20.99,135.295,51.502c8.862,6.423,17.902,13.348,27.453,20.764c38.291,29.715,81.698,63.452,133.16,64.958
			c47.321,1.475,64.357,13.356,92.627,33.117l8.576,5.902c31.417,21.768,48.551,32.655,62.4,41.488
			c9.462,6.079,17.606,11.253,28.111,18.492c35.115,24.147,65.912,30.865,91.437,20.144c28.406-11.882,40.78-42.502,43.269-57.02
			c11.184-64.15,23.262-83.665,61.751-122.262c34.102-34.102,69.708-53.145,119.164-63.63c64.928-13.81,95.932-0.246,120.816,10.722
			l1.623,0.698c36.305,15.816,54.404,19.613,87-7.584c42.709-35.606,124.043-47.636,190.633,0.069
			c27.797,20.075,44.527,55.534,45.975,97.476c0.078,2.921,0.107,6.718,0.244,10.691c0.346,36.452,1.338,112.309,39.787,149.606
			c15.336,14.725,34.525,21.925,57.227,21.403c11.951-0.275,23.271-8.075,34.377-23.94c29.037-41.096,57.482-138.178,45.453-174.108
			c-30.059-90.964-10.721-124.889,14.695-148.023c95.891-87.394,132.904-138.324,158.32-217.938
			c15.887-49.839,13.506-93.089,9.846-158.646l-1.582-30.364c-1.969-38.99-8.154-71.085-14.303-102.089
			c-7.17-36.875-13.996-71.675-12.195-113.429c2.664-57.935,14.162-73.82,27.52-92.381c3.836-5.312,7.85-10.839,11.814-17.41
			c24.256-40.317,32.686-67.78,32.479-104.892c-0.344-45.629,0.314-68.587,17.41-91.249L2428.537,1645.113z M614.04,2568.906
			c-82.889-59.685-118.396-158.783-128.488-192.669c-9.099-30.57-19.299-72.934-27.562-117.511
			c3.099,5.242,6.354,10.622,9.915,16.032c53.154,82.604,101.971,145.672,146.125,188.558v105.59H614.04z M792.751,2631.69
			c-8.617-2.42-17.303-4.495-25.948-6.502v-78.492c9.217,2.253,17.646,4.043,25.948,5.734V2631.69z M837.357,2646.553
			c-5.232-2.214-10.504-4.181-15.776-6.01v-81.729c5.272,1.338,10.505,2.813,15.776,4.495V2646.553z M877.96,2667.228
			c-5.351-3.266-10.515-6.295-15.816-9.177v-85.278c5.057,2.252,10.367,4.888,15.816,7.771V2667.228z M1049.04,2757.818
			c-3.275-0.246-6.777-0.423-10.338-0.531c-43.633-1.338-82.053-31.111-119.203-59.901c-2.184-1.613-4.181-3.266-6.256-4.889
			v-89.843c10.515,7.495,19.898,15.01,29.065,22.357c24.787,19.79,46.121,36.836,76.987,44.4c8.783,2.223,18.865,2.921,29.734,3.029
			v85.377H1049.04z M1107.24,2771.805c-6.669-3.157-13.771-5.832-21.826-8.114v-91.574c7.426,0,14.695,0.108,21.826,0.659V2771.805z
			 M1333.558,2857.684c-4.741,8.076-11.705,16.446-21.68,20.636c-17.586,7.378-40.682,1.407-68.655-17.793
			c-10.839-7.456-19.151-12.758-28.8-18.983c-13.555-8.686-30.531-19.505-61.652-40.957l-8.499-5.902
			c-5.39-3.767-10.652-7.455-15.895-10.858v-107.813c7.878,1.898,15.157,4.81,21.452,9.177
			c33.492,23.096,56.371,41.41,74.764,56.135c10.801,8.725,20.184,16.141,29.598,23.065c18.324,13.289,38.114,16.377,55.898,8.646
			c9.146-3.896,17.193-10.683,23.488-19.299v103.947H1333.558z M1689.082,2551.369v100.534c-3.482-1.406-7.338-3.089-11.734-4.957
			l-1.652-0.699c-18.697-8.223-42.363-18.521-80.045-18.521v-97.2c26.93,3.088,40.918,7.563,56.174,12.482l3.48,1.091
			c12.826,4.072,24,6.502,33.816,7.27H1689.082L1689.082,2551.369z M1978.313,2659.074c-5.775-6.354-12.061-12.128-18.945-17.076
			c-47.842-34.387-102.748-41.557-149.154-31.81v-94.102c51.217-2.567,112.004,10.022,154.182,40.328
			c4.533,3.226,9.314,6.914,13.918,10.996V2659.074z M2128.203,2851.743c-7.111,19.76-15.648,38.104-24.855,51.107
			c-9.137,12.935-14.381,13.741-15.256,13.741c-9.176,0.207-17.33-1.269-24.531-4.426v-105.108c2.598,2.921,5.41,5.548,8.332,7.731
			c11.881,9.107,25.209,12.02,39.482,8.685c6.324-1.436,11.9-4.082,16.838-7.563v35.833H2128.203z M2200.508,2545.319
			c-5.615,5.41-11.459,10.997-17.686,16.761v-83.409c6.365-6.188,12.197-12.197,17.686-18.138V2545.319z M2236.361,2508.553
			c-5.764,6.226-11.814,12.649-18.236,19.229v-87.079c6.678-8.006,12.719-15.846,18.236-23.655V2508.553z M2325.721,1873.468
			c-3.334,4.779-6.541,9.806-9.393,15.57v-119.449c0.207-0.354,0.531-0.777,0.885-1.122c3.029-4.042,5.941-7.878,8.508-11.537
			V1873.468z M2363.324,1806.425c-3.758,10.928-9.137,22.18-16.484,35.046v-125.243c5.203-16.839,7.141-36,8.852-64.682
			c1.23-20.773,3.689-38.98,7.623-54.659v209.538H2363.324z M2406.811,1634.048l-11.705,15.324v-111.816
			c1.543-1.682,3.275-3.442,4.879-5.193c2.232-2.282,4.584-4.613,6.826-7.032V1634.048z"/>
		<path fill="#CD1B33" d="M1937.188,78.237v-0.088c-22.328-7.023-38.184-22.289-92.283,14.164
			c-54.059,36.413-55.287,46.957-77.654,41.095c-20.598-5.42-36.375-3.482-78.67,15.266c-31.809,14.154-81.166,21.187-84.707,57.6
			c-3.512,36.413-5.844,82.299-10.506,118.771c-4.779,36.384-56.527,121.082-60.01,164.548
			c25.938-10.534,48.188-17.606,78.777-22.328c30.58-4.672,27.029-23.479,81.127-18.836c47.381,4.151,66.936,23.558,104.646,1.151
			c36.787-21.826,78.768-63.876,135.768-54.571V87.572C1933.676,84.641,1935.033,81.415,1937.188,78.237z"/>
		<path fill="#1D5B2D" d="M1937.188,78.237c-2.164,3.178-3.512,6.403-3.512,9.335v307.455V640.93h48.719V77.027
			c0-10.583-10.506-17.606-18.768-17.606C1957.498,59.421,1943.689,68.657,1937.188,78.237z"/>
		<path fill="#EEEC1A" d="M2096.914,2302.497c0,18.551-5.664,36.029-15.471,51.59l0.473,0.609l-7.172,9.118
			c-0.383,0.492-0.855,0.905-1.248,1.388c-2.469,3.039-5.125,5.96-7.928,8.793c-1.143,1.16-2.283,2.321-3.482,3.442
			c-2.902,2.705-5.932,5.321-9.129,7.811c-2.094,1.643-4.307,3.147-6.512,4.691c-1.77,1.22-3.541,2.41-5.379,3.561
			c-2.508,1.574-5.047,3.099-7.662,4.545c-1.693,0.924-3.453,1.77-5.184,2.636c-4.713,2.351-9.58,4.485-14.607,6.384
			c-2.252,0.865-4.455,1.79-6.768,2.557c-2.469,0.816-4.996,1.466-7.514,2.185c-2.844,0.806-5.695,1.563-8.607,2.242
			c-2.32,0.521-4.662,1.003-7.023,1.436c-3.48,0.64-7.012,1.161-10.584,1.613c-1.947,0.236-3.885,0.531-5.861,0.709
			c-5.617,0.521-11.301,0.855-17.096,0.855c-5.793,0-11.479-0.335-17.094-0.855c-2.018-0.188-3.984-0.482-5.98-0.729
			c-3.492-0.433-6.965-0.944-10.387-1.573c-2.449-0.453-4.879-0.944-7.289-1.485c-2.725-0.62-5.391-1.348-8.037-2.096
			c-2.725-0.747-5.469-1.465-8.123-2.351c-0.936-0.305-1.82-0.698-2.734-1.022c-6.787-2.381-13.289-5.204-19.535-8.391
			c-1.24-0.62-2.498-1.229-3.719-1.879c-2.939-1.603-5.773-3.305-8.566-5.085c-1.426-0.896-2.783-1.819-4.16-2.754
			c-2.578-1.761-5.125-3.512-7.545-5.43c-2.047-1.594-3.934-3.314-5.863-5.017c-2.557-2.252-5.035-4.573-7.377-7.013
			c-2.35-2.43-4.623-4.908-6.736-7.485c-0.473-0.58-1.033-1.072-1.496-1.662l-7.16-9.108l0.492-0.62
			c-9.807-15.561-15.463-33.029-15.463-51.57c0-59.636,57.109-108.846,130.299-115.367v-602.292c-3.363-2.312-6.67-4.81-9.846-7.633
			c-30.334-26.921-72.482-25.593-100.25,3.275c-8.045,8.361-14.311,22.318-20.291,35.823
			c-12.541,27.905-29.559,66.089-74.773,66.089c-48.188,0-72.66-37.407-90.551-64.83c-10.152-15.462-20.695-31.563-29.381-31.563
			c-31.742,0-927.905-25.801-949.387-27.384c-4.072-0.275-11.321,16.987-11.321,16.987c-8.606,23.449-9.06,21.796-9.06,21.796
			c-12.413,12.413-13.219,11.774-13.219,11.774c-61.348,22.288-61.348,22.288-61.171,22.288
			c-9.531,3.443-10.722,14.489-10.722,14.489s0.413,53.469-1.338,71.144c-5.232,55.712-25.209,126.787-48.481,172.869
			c-27.442,54.099-41.479,127.604-42.983,224.734c-1.161,69.708,8.144,96.275,36.875,140.921
			c82.21,127.811,152.026,205.85,207.423,231.826c40.85,19.082,69.108,24.876,96.462,30.61
			c31.722,6.649,61.633,12.757,103.171,36.944c24.364,14.164,43.21,29.145,59.686,42.423c22.348,17.754,39.896,31.85,63.275,37.613
			c9.659,2.39,24.993,2.036,41.134,1.761c33.463-0.571,71.322-1.229,101.057,19.15c34.524,23.843,57.895,42.609,76.779,57.758
			c10.437,8.331,19.437,15.57,28.338,22.042c7.84,5.686,14.902,7.27,20.833,4.771c8.193-3.62,14.774-14.449,16.377-27.698
			c8.164-65.41,22.495-115.229,68.341-161.095c39.64-39.62,99.649-62.253,160.536-60.325c73.219,2.282,94.877,12.197,121.445,17.823
			c19.229,3.974,39.482,7.17,43.377,3.875c59.627-49.603,200.223-42.147,279.078,14.519c28.111,20.184,65.902,54.807,68.125,121.839
			c1.506,45.561,17.537,119.804,40.25,137.203c3.305,2.528,5.969,3.158,9.846,2.272c3.02-0.659,5.301-1.968,7.594-5.941
			c10.219-18.275,5.754-68.616-10.387-117.235c-33.709-101.656-14.48-145.702,27.461-183.836
			c68.047-62.105,95.4-99.236,112.516-152.695c17.646-55.476,25.73-112.938,26.223-186.305c0.207-37.19-4.85-79.367-9.738-120.147
			c-5.725-47.381-11.527-96.394-9.658-140.154c3.934-86.853,19.918-107.567,42.068-136.102
			c25.309-32.98,27.768-43.948,30.865-96.944c3.275-54.915,15.334-94.987,36.768-122.509c5.232-6.648,11.184-12.796,17.537-19.338
			c31.152-32.301,27.641-36.206,19.063-45.59c-19.063-20.911-25.986-45.698-20.566-73.573c3.029-16.063,1.691-26.017-5.203-38.135
			c-2.283-3.935-4.221-5.616-5.193-5.901c-0.846-0.217-6.473-1.023-22.752,8.606c-22.986,13.505-83.695,71.213-106.652,114.659
			c-17.686,33.491-31.711,60.039-74.242,62.715c-4.957,0.275-9.738,0.383-14.803,0.53c-24.531,0.62-43.938,1.23-59.971,18.374
			c-32.371,34.555-68.488,51.964-101.863,51.285v588.591C2047.832,2200.939,2096.914,2247.228,2096.914,2302.497z"/>
		<path fill="#FFFFFF" d="M2067.406,2302.497c0-39.502-36-72.836-85.012-83.224v74.46c30.49,5.39,57.846,18.275,78.422,37.131
			C2065.006,2321.962,2067.406,2312.451,2067.406,2302.497z"/>
		<path fill="#FFFFFF" d="M1922.434,2386.575c0.441,0.079,0.875,0.178,1.307,0.246c3.266,0.57,6.602,0.964,9.936,1.318v-66.896
			c-30.285,3.256-57.994,15.246-76.74,33.442C1873.342,2370.621,1896.594,2381.824,1922.434,2386.575z"/>
		<path fill="#FFFFFF" d="M1982.395,2323.831v61.722c23.959-5.184,45.471-15.886,60.904-30.866
			C2027.865,2339.717,2006.354,2329.015,1982.395,2323.831z"/>
		<path fill="#FFFFFF" d="M1832.885,2302.497c0,9.934,2.391,19.455,6.582,28.348c24.049-22.033,57.402-36.03,94.209-39.256v-74.764
			C1876.813,2222.775,1832.885,2258.864,1832.885,2302.497z"/>
		<path fill="#1D5B2D" d="M1803.377,2302.497c0,18.541,5.656,36.01,15.463,51.57l6.668-8.479
			c4.162-5.292,8.922-10.132,13.959-14.744c-4.191-8.893-6.582-18.413-6.582-28.348c0-43.633,43.928-79.722,100.791-85.673v-29.694
			C1860.475,2193.651,1803.377,2242.86,1803.377,2302.497z"/>
		<path fill="#1D5B2D" d="M1846.971,2384.972c-2.037-1.593-3.934-3.314-5.861-5.016
			C1843.037,2381.657,1844.926,2383.379,1846.971,2384.972z"/>
		<path fill="#1D5B2D" d="M1909.4,2413.979c-2.715-0.619-5.381-1.357-8.037-2.095
			C1904.01,2412.631,1906.676,2413.35,1909.4,2413.979z"/>
		<path fill="#1D5B2D" d="M1967.256,2417.775c-5.637,0.512-11.32,0.855-17.096,0.855
			C1955.945,2418.631,1961.639,2418.287,1967.256,2417.775z"/>
		<path fill="#1D5B2D" d="M2013.613,2407.044c-2.252,0.866-4.465,1.791-6.768,2.558
			C2009.158,2408.835,2011.361,2407.91,2013.613,2407.044z"/>
		<path fill="#1D5B2D" d="M1858.676,2393.155c-1.416-0.895-2.783-1.819-4.16-2.754
			C1855.893,2391.336,1857.25,2392.261,1858.676,2393.155z"/>
		<path fill="#1D5B2D" d="M1927.076,2417.038c-3.492-0.434-6.955-0.954-10.387-1.574
			C1920.111,2416.104,1923.574,2416.615,1927.076,2417.038z"/>
		<path fill="#1D5B2D" d="M1893.24,2409.533c-0.936-0.306-1.811-0.698-2.734-1.023
			C1891.42,2408.835,1892.305,2409.228,1893.24,2409.533z"/>
		<path fill="#1D5B2D" d="M1870.961,2400.12c-1.24-0.62-2.498-1.22-3.719-1.879
			C1868.463,2398.891,1869.721,2399.49,1870.961,2400.12z"/>
		<path fill="#1D5B2D" d="M1999.332,2411.775c-2.844,0.797-5.695,1.574-8.607,2.242
			C1993.637,2413.35,1996.488,2412.582,1999.332,2411.775z"/>
		<path fill="#1D5B2D" d="M1833.74,2372.942c-2.33-2.429-4.623-4.889-6.736-7.485
			C1829.119,2368.034,1831.381,2370.513,1833.74,2372.942z"/>
		<path fill="#1D5B2D" d="M1983.701,2415.444c-3.48,0.64-7.021,1.171-10.584,1.613
			C1976.689,2416.615,1980.221,2416.094,1983.701,2415.444z"/>
		<path fill="#1D5B2D" d="M2046.455,2389.92c-1.76,1.22-3.551,2.409-5.379,3.561
			C2042.904,2392.329,2044.686,2391.14,2046.455,2389.92z"/>
		<path fill="#1D5B2D" d="M2062.096,2377.418c-2.902,2.725-5.941,5.321-9.129,7.81
			C2056.164,2382.739,2059.193,2380.133,2062.096,2377.418z"/>
		<path fill="#1D5B2D" d="M2073.496,2365.191c-2.48,3.06-5.145,5.961-7.93,8.794
			C2068.371,2371.152,2071.027,2368.231,2073.496,2365.191z"/>
		<path fill="#1D5B2D" d="M1950.16,2418.631c-5.773,0-11.459-0.344-17.094-0.855
			C1938.682,2418.287,1944.367,2418.631,1950.16,2418.631z"/>
		<path fill="#1D5B2D" d="M2033.404,2398.024c-1.693,0.925-3.453,1.771-5.184,2.637
			C2029.961,2399.795,2031.721,2398.949,2033.404,2398.024z"/>
		<path fill="#1D5B2D" d="M1923.74,2386.821c-0.432-0.078-0.865-0.177-1.307-0.246
			C1922.875,2386.654,1923.309,2386.743,1923.74,2386.821z"/>
		<path fill="#1D5B2D" d="M2067.406,2302.497c0,9.954-2.389,19.465-6.59,28.377c5.027,4.604,9.777,9.423,13.928,14.705l6.699,8.508
			c9.807-15.561,15.471-33.039,15.471-51.59c0-55.27-49.07-101.558-114.52-113.233v30.01
			C2031.396,2229.661,2067.406,2262.995,2067.406,2302.497z"/>
		<path fill="#1D5B2D" d="M1825.508,2345.589l-6.668,8.479l-0.492,0.619l7.16,9.108c0.463,0.59,1.023,1.082,1.496,1.662
			c2.113,2.597,4.396,5.057,6.736,7.485c2.342,2.439,4.82,4.751,7.379,7.014c1.918,1.701,3.826,3.423,5.861,5.016
			c2.42,1.908,4.967,3.669,7.545,5.43c1.377,0.944,2.744,1.859,4.16,2.754c2.793,1.781,5.627,3.482,8.566,5.086
			c1.221,0.659,2.479,1.259,3.719,1.878c6.256,3.178,12.748,6,19.535,8.391c0.934,0.324,1.809,0.718,2.734,1.022
			c2.664,0.886,5.398,1.604,8.123,2.352c2.666,0.737,5.322,1.475,8.037,2.095c2.41,0.551,4.84,1.033,7.289,1.485
			c3.432,0.62,6.885,1.141,10.387,1.574c1.996,0.245,3.963,0.551,5.98,0.728c5.635,0.512,11.32,0.855,17.094,0.855
			c5.775,0,11.459-0.344,17.096-0.855c1.977-0.187,3.904-0.473,5.861-0.708c3.563-0.443,7.104-0.974,10.584-1.613
			c2.361-0.433,4.703-0.915,7.023-1.437c2.912-0.659,5.764-1.436,8.607-2.242c2.518-0.708,5.045-1.367,7.514-2.184
			c2.303-0.768,4.516-1.691,6.768-2.558c5.037-1.898,9.895-4.032,14.607-6.384c1.74-0.865,3.49-1.711,5.184-2.636
			c2.625-1.436,5.154-2.971,7.662-4.544c1.828-1.151,3.619-2.342,5.379-3.562c2.215-1.534,4.418-3.049,6.512-4.691
			c3.178-2.488,6.227-5.085,9.129-7.81c1.189-1.112,2.33-2.272,3.482-3.443c2.773-2.822,5.449-5.734,7.928-8.793
			c0.393-0.482,0.865-0.896,1.248-1.387l7.172-9.118l-0.473-0.61l-6.699-8.508c-4.15-5.282-8.9-10.102-13.928-14.705
			c-20.576-18.855-47.932-31.751-78.422-37.131v30.099c23.959,5.184,45.471,15.885,60.904,30.865
			c-15.434,14.971-36.955,25.672-60.904,30.865v8.794h-48.719v-6.207c-3.334-0.354-6.67-0.747-9.934-1.317
			c-0.434-0.079-0.867-0.178-1.309-0.246c-25.84-4.741-49.092-15.954-65.498-31.879c18.746-18.206,46.455-30.187,76.74-33.442
			v-29.666c-36.807,3.227-70.16,17.224-94.209,39.256C1834.43,2335.457,1829.67,2340.297,1825.508,2345.589z"/>
		<polygon fill="#1D5B2D" points="1933.676,2187.13 1933.676,2216.824 1933.676,2291.589 1933.676,2321.244 1933.676,2388.14 
			1933.676,2394.346 1982.395,2394.346 1982.395,2385.553 1982.395,2323.831 1982.395,2293.732 1982.395,2219.273 
			1982.395,2189.264 1982.395,1600.674 1982.395,1558.191 1982.395,1336.104 1933.676,1336.104 1933.676,1532.775 
			1933.676,1584.838 		"/>
		<path fill="#FFFFFF" d="M458,2258.727c8.262,44.577,18.462,86.94,27.561,117.512c10.082,33.885,45.6,132.983,128.488,192.668
			v-105.59c-44.154-42.885-92.971-105.944-146.125-188.558C464.354,2269.35,461.098,2263.969,458,2258.727z"/>
		<path fill="#FFFFFF" d="M862.134,2658.051c5.302,2.882,10.466,5.911,15.816,9.177v-86.685c-5.459-2.882-10.771-5.528-15.816-7.771
			V2658.051z"/>
		<path fill="#FFFFFF" d="M942.318,2625.012c-9.167-7.348-18.551-14.872-29.065-22.357v89.853c2.075,1.623,4.072,3.275,6.256,4.889
			c37.151,28.79,75.58,58.563,119.203,59.901c3.551,0.107,7.063,0.275,10.338,0.53v-85.387c-10.869-0.107-20.961-0.807-29.734-3.029
			C988.439,2661.848,967.095,2644.802,942.318,2625.012z"/>
		<path fill="#FFFFFF" d="M1310.069,2773.034c-17.783,7.731-37.563,4.643-55.898-8.646c-9.413-6.925-18.797-14.341-29.597-23.065
			c-18.384-14.725-41.262-33.04-74.764-56.135c-6.295-4.357-13.574-7.269-21.453-9.177v107.813
			c5.243,3.413,10.506,7.102,15.896,10.859l8.499,5.901c31.111,21.453,48.098,32.272,61.652,40.958
			c9.639,6.226,17.96,11.527,28.8,18.983c27.983,19.189,51.068,25.17,68.655,17.793c9.975-4.19,16.938-12.551,21.679-20.636
			v-103.947C1327.262,2762.353,1319.216,2769.13,1310.069,2773.034z"/>
		<path fill="#FFFFFF" d="M2071.893,2814.799c-2.922-2.184-5.734-4.811-8.332-7.731v105.108c7.201,3.157,15.363,4.642,24.531,4.426
			c0.875,0,6.119-0.807,15.256-13.741c9.217-13.003,17.754-31.357,24.855-51.108v-35.822c-4.938,3.481-10.514,6.118-16.84,7.563
			C2097.092,2826.818,2083.773,2823.906,2071.893,2814.799z"/>
		<path fill="#FFFFFF" d="M1651.822,2542.998c-15.254-4.918-29.242-9.384-56.174-12.481v97.199
			c37.684,0,61.338,10.299,80.047,18.521l1.652,0.698c4.396,1.859,8.262,3.551,11.734,4.958v-100.535h0.039
			c-9.807-0.767-20.99-3.196-33.816-7.269L1651.822,2542.998z"/>
		<path fill="#FFFFFF" d="M1810.213,2516.077v94.102c46.406-9.737,101.313-2.577,149.154,31.81
			c6.885,4.947,13.17,10.722,18.945,17.075v-91.672c-4.604-4.082-9.385-7.771-13.918-10.997
			C1922.217,2526.09,1861.43,2513.51,1810.213,2516.077z"/>
		<path fill="#FFFFFF" d="M766.803,2625.188c8.646,2.007,17.331,4.082,25.948,6.502v-79.269c-8.302-1.692-16.731-3.482-25.948-5.735
			V2625.188z"/>
		<path fill="#FFFFFF" d="M2395.105,1537.546v111.816l11.705-15.324V1525.31c-2.254,2.42-4.604,4.741-6.826,7.033
			C2398.381,1534.113,2396.648,1535.874,2395.105,1537.546z"/>
		<path fill="#FFFFFF" d="M2182.822,2478.671v83.409c6.227-5.764,12.07-11.351,17.686-16.761v-84.786
			C2195.02,2466.474,2189.188,2472.483,2182.822,2478.671z"/>
		<path fill="#FFFFFF" d="M2218.125,2527.782c6.422-6.58,12.482-13.004,18.236-19.229v-91.505
			c-5.527,7.81-11.568,15.649-18.236,23.655V2527.782z"/>
		<path fill="#FFFFFF" d="M821.571,2640.543c5.272,1.839,10.544,3.806,15.776,6.01v-83.243c-5.271-1.682-10.505-3.157-15.776-4.495
			V2640.543z"/>
		<path fill="#FFFFFF" d="M1085.423,2763.69c8.046,2.281,15.157,4.957,21.826,8.114v-99.02c-7.131-0.561-14.4-0.658-21.826-0.658
			V2763.69z"/>
		<path fill="#FFFFFF" d="M2346.85,1716.228v125.243c7.348-12.876,12.729-24.118,16.484-35.046v-209.538
			c-3.934,15.679-6.393,33.876-7.623,54.659C2353.98,1680.228,2352.053,1699.398,2346.85,1716.228z"/>
		<path fill="#FFFFFF" d="M2316.328,1769.589v119.449c2.852-5.765,6.059-10.791,9.393-15.57V1756.93
			c-2.576,3.659-5.488,7.495-8.508,11.538C2316.859,1768.812,2316.545,1769.234,2316.328,1769.589z"/>
	</g>
</g>
</svg>
